<?xml version="1.0" standalone="no"?>
<!DOCTYPE svg PUBLIC "-//W3C//DTD SVG 20010904//EN"
 "http://www.w3.org/TR/2001/REC-SVG-20010904/DTD/svg10.dtd">
<svg version="1.0" xmlns="http://www.w3.org/2000/svg"
 width="275.000000pt" height="275.000000pt" viewBox="0 0 275.000000 275.000000"
 preserveAspectRatio="xMidYMid meet">
<metadata>
Created by potrace 1.11, written by Peter Selinger 2001-2013
</metadata>
<g transform="translate(0.000000,275.000000) scale(0.100000,-0.100000)"
fill="#000000" stroke="none">
<path d="M1210 2705 c-8 -2 -49 -9 -90 -15 -402 -65 -782 -355 -965 -735 -97
-203 -130 -348 -130 -575 1 -187 16 -282 72 -444 67 -194 166 -350 317 -502
438 -437 1103 -518 1634 -199 104 63 142 109 150 184 10 103 -59 199 -157 220
-52 11 -81 6 -182 -33 -189 -71 -451 -76 -644 -11 -60 20 -203 87 -227 106
-16 13 -16 19 -3 84 37 177 200 403 367 508 197 124 393 136 776 48 233 -54
336 -57 438 -12 125 56 206 203 175 318 -15 56 -52 98 -115 131 -46 24 -61 27
-156 27 -124 0 -171 -15 -417 -126 -290 -131 -474 -191 -708 -229 -176 -29
-418 -26 -529 7 -16 4 -17 12 -11 71 13 123 57 237 138 357 56 82 211 234 273
267 62 34 161 58 234 58 73 0 220 -31 299 -64 85 -34 127 -34 178 3 49 36 106
102 129 150 42 87 20 182 -56 243 -73 58 -303 136 -463 157 -70 10 -288 13
-327 6z"/>
<path d="M1610 1042 c0 -201 -6 -222 -63 -222 -26 0 -35 -6 -45 -30 -7 -16
-22 -32 -33 -35 -30 -10 -23 -23 19 -34 95 -27 182 4 220 79 20 41 22 57 22
232 l0 188 -60 0 -60 0 0 -178z"/>
<path d="M1782 1100 c-22 -9 -23 -13 -20 -111 l3 -102 64 -22 c70 -23 81 -34
56 -55 -16 -13 -37 -10 -115 16 -11 4 -21 -6 -33 -31 -9 -20 -17 -40 -17 -45
0 -12 95 -40 137 -40 51 0 112 29 128 61 23 43 19 103 -7 133 -13 14 -54 38
-93 54 -43 17 -70 33 -70 42 0 21 46 24 90 6 21 -9 40 -16 44 -16 9 0 41 55
41 70 0 34 -149 63 -208 40z"/>
<path d="M1366 889 c-14 -11 -26 -31 -26 -43 0 -34 37 -76 66 -76 30 0 74 41
74 70 0 26 -43 70 -68 70 -11 0 -31 -9 -46 -21z"/>
</g>
</svg>
